<svg id="visual" viewBox="0 0 900 600" width="900" height="600" xmlns="http://www.w3.org/2000/svg" xmlns:xlink="http://www.w3.org/1999/xlink" version="1.1"><rect x="0" y="0" width="900" height="600" fill="#fffffe"></rect><defs><linearGradient id="grad1_0" x1="33.3%" y1="0%" x2="100%" y2="100%"><stop offset="20%" stop-color="#fffffe" stop-opacity="1"></stop><stop offset="80%" stop-color="#fffffe" stop-opacity="1"></stop></linearGradient></defs><defs><linearGradient id="grad2_0" x1="0%" y1="0%" x2="66.7%" y2="100%"><stop offset="20%" stop-color="#fffffe" stop-opacity="1"></stop><stop offset="80%" stop-color="#fffffe" stop-opacity="1"></stop></linearGradient></defs><g transform="translate(900, 0)"><path d="M0 378.6C-35.3 357.1 -70.6 335.6 -103.5 318.6C-136.5 301.6 -167.1 289 -198.1 272.6C-229.1 256.3 -260.5 236.2 -289.6 210.4C-318.8 184.6 -345.6 153 -360.1 117C-374.5 81 -376.5 40.5 -378.6 0L0 0Z" fill="#90b4ce"></path></g><g transform="translate(0, 600)"><path d="M0 -378.6C42.5 -375 85.1 -371.4 112.8 -347.1C140.5 -322.9 153.4 -277.9 187.5 -258.1C221.6 -238.3 277.1 -243.6 306.3 -222.5C335.5 -201.5 338.5 -154 346.2 -112.5C353.9 -71 366.2 -35.5 378.6 0L0 0Z" fill="#90b4ce"></path></g></svg>